<svg xmlns="http://www.w3.org/2000/svg" width="1024" height="1024" viewBox="0 0 1024 1024" version="1.1"><path d="M 0 512.001 L 0 1024.002 512.250 1023.751 L 1024.500 1023.500 1024.751 511.750 L 1025.002 0 512.501 0 L 0 0 0 512.001 M 0.496 512.500 C 0.496 794.100, 0.610 909.151, 0.750 768.168 C 0.890 627.186, 0.890 396.786, 0.750 256.168 C 0.610 115.551, 0.496 230.900, 0.496 512.500 M 566.467 196.054 C 559.295 196.772, 551.075 199.667, 545.255 203.526 L 542.010 205.678 530.255 203.363 C 449.286 187.416, 367.138 215.601, 314.209 277.487 C 292.157 303.272, 275.615 334.696, 267.461 366.295 C 265.281 374.743, 264.354 376.966, 263.196 376.522 C 262.383 376.210, 254.919 375.678, 246.609 375.340 C 188.196 372.965, 132.300 394.791, 90.875 436.151 C 58.196 468.779, 38.041 509.189, 31.501 555.196 C 29.797 567.186, 29.548 593.816, 31.026 606.026 C 40.894 687.560, 95.222 754.645, 172.332 780.516 L 182.221 783.834 184.361 790.167 C 190.361 807.931, 205.073 821.919, 222.542 826.469 C 230.037 828.421, 242.921 828.432, 250.368 826.492 C 269.605 821.482, 285.474 805.637, 290.472 786.448 C 294.950 769.253, 289.377 748.006, 277.001 735.098 C 265.974 723.597, 253.077 718, 237.605 718 C 221.606 718, 209.690 722.659, 198.578 733.260 L 192.500 739.059 183.500 735.941 C 170.711 731.512, 152.833 722.022, 141.885 713.851 C 90.768 675.703, 66.170 611.986, 78.629 550 C 86.836 509.165, 113.989 469.722, 149.870 446.515 C 165.794 436.215, 186.548 427.758, 206.500 423.439 C 218.535 420.834, 249.937 420.284, 262.706 422.454 C 288.242 426.796, 312.932 436.833, 332.197 450.704 C 338.594 455.309, 340.050 456.828, 339.633 458.465 C 339.348 459.584, 338.422 463.200, 337.573 466.500 C 332.080 487.872, 342.131 512.892, 361.099 525.063 C 376.148 534.721, 396.219 536.541, 412.500 529.727 C 427.625 523.396, 439.983 509.456, 444.540 493.585 C 446.767 485.826, 446.763 472.149, 444.530 464.415 C 439.210 445.987, 424.318 430.956, 406.068 425.595 C 399.848 423.768, 384.471 423.464, 378.743 425.054 C 375.064 426.076, 374.816 425.965, 366.743 419.676 C 351.136 407.518, 332.595 396.746, 315.750 390.053 C 308.941 387.347, 308.944 387.359, 312.540 374.239 C 325.393 327.349, 359.548 285.954, 403.500 263.996 C 430.219 250.648, 454.266 244.824, 483.500 244.620 C 492.354 244.558, 503.855 245.122, 509.250 245.883 L 519 247.257 519 252.079 C 519 273.912, 534.769 295.384, 556.103 302.602 C 576.102 309.368, 596.606 304.883, 611.980 290.380 C 623.209 279.787, 629.215 265.885, 629.125 250.696 C 629.033 235.251, 623.884 222.853, 613.027 211.939 C 600.147 198.990, 585.853 194.114, 566.467 196.054 M 773.500 245.589 C 757.449 247.175, 748.679 248.577, 736.233 251.548 C 685.927 263.556, 641.997 294.300, 612.815 337.921 C 599.173 358.312, 587.853 384.408, 583.011 406.624 C 577.959 429.808, 578.040 426.772, 578.020 593.750 L 578 750 501.250 749.970 L 424.500 749.941 421.019 743.864 C 414.683 732.803, 402.595 723.628, 389.068 719.612 C 381.259 717.294, 366.478 717.475, 358.024 719.993 C 336.250 726.477, 320.500 746.601, 319.277 769.500 C 318.349 786.866, 323.926 800.926, 336.468 812.839 C 350.437 826.108, 368.143 830.883, 386.947 826.451 C 401.286 823.071, 415.893 812.361, 421.999 800.750 L 424.497 796 523.748 796 L 623 796 623 756.764 L 623 717.528 629.183 724.514 C 667.523 767.834, 718.484 792.416, 776.500 795.574 C 802.543 796.992, 836.630 791.482, 860.517 781.993 C 934.188 752.728, 984.647 686.741, 992.964 608.789 C 995.681 583.326, 993.031 554.598, 985.601 528.944 L 983.174 520.565 986.505 508.410 C 992.153 487.802, 993.509 477.115, 993.405 454 C 993.278 425.575, 989.984 406.374, 981.038 381.893 C 970.498 353.050, 954.874 328.724, 932.573 306.431 C 894.366 268.240, 845.657 247.151, 792.097 245.613 C 784.069 245.383, 775.700 245.372, 773.500 245.589 M 766 292.016 C 730.222 297.004, 698.274 312.278, 673.296 336.337 C 647.225 361.448, 632.993 388.397, 625.415 427 C 623.977 434.322, 623.682 445.751, 623.286 509.500 C 622.704 603.112, 623.313 612.447, 631.699 638.451 C 649.453 693.509, 697.258 735.703, 754.735 747.046 C 795.605 755.113, 841.013 746.011, 876.104 722.719 C 904.994 703.543, 928.900 672.256, 939.884 639.249 C 946.119 620.512, 947.443 611.661, 947.473 588.500 C 947.497 570.190, 947.195 566.027, 945.117 556 C 938.609 524.599, 923.837 496.771, 901.674 474.162 C 893.512 465.836, 880.846 455.374, 873.743 451.093 L 869.985 448.828 864.908 453.393 C 839.093 476.603, 795.863 468.079, 780.130 436.676 C 764.428 405.334, 779.823 369.762, 814 358.419 C 820.559 356.242, 836.131 355.976, 842.974 357.924 C 862.301 363.426, 877.229 378.467, 882.625 397.876 C 883.733 401.861, 885.132 404.651, 886.378 405.364 C 887.472 405.989, 894.246 410.399, 901.433 415.165 C 916.347 425.055, 930.164 436.926, 940.913 449.082 L 948.326 457.466 947.735 444.983 C 944.238 371.175, 890.398 308.989, 817 293.982 C 805.098 291.549, 777.094 290.469, 766 292.016" stroke="none" fill="#ffffff" fill-rule="evenodd"/><path d="M 566.467 196.054 C 559.295 196.772, 551.075 199.667, 545.255 203.526 L 542.010 205.678 530.255 203.363 C 449.286 187.416, 367.138 215.601, 314.209 277.487 C 292.157 303.272, 275.615 334.696, 267.461 366.295 C 265.281 374.743, 264.354 376.966, 263.196 376.522 C 262.383 376.210, 254.919 375.678, 246.609 375.340 C 188.196 372.965, 132.300 394.791, 90.875 436.151 C 58.196 468.779, 38.041 509.189, 31.501 555.196 C 29.797 567.186, 29.548 593.816, 31.026 606.026 C 40.894 687.560, 95.222 754.645, 172.332 780.516 L 182.221 783.834 184.361 790.167 C 190.361 807.931, 205.073 821.919, 222.542 826.469 C 230.037 828.421, 242.921 828.432, 250.368 826.492 C 269.605 821.482, 285.474 805.637, 290.472 786.448 C 294.950 769.253, 289.377 748.006, 277.001 735.098 C 265.974 723.597, 253.077 718, 237.605 718 C 221.606 718, 209.690 722.659, 198.578 733.260 L 192.500 739.059 183.500 735.941 C 170.711 731.512, 152.833 722.022, 141.885 713.851 C 90.768 675.703, 66.170 611.986, 78.629 550 C 86.836 509.165, 113.989 469.722, 149.870 446.515 C 165.794 436.215, 186.548 427.758, 206.500 423.439 C 218.535 420.834, 249.937 420.284, 262.706 422.454 C 288.242 426.796, 312.932 436.833, 332.197 450.704 C 338.594 455.309, 340.050 456.828, 339.633 458.465 C 339.348 459.584, 338.422 463.200, 337.573 466.500 C 332.080 487.872, 342.131 512.892, 361.099 525.063 C 376.148 534.721, 396.219 536.541, 412.500 529.727 C 427.625 523.396, 439.983 509.456, 444.540 493.585 C 446.767 485.826, 446.763 472.149, 444.530 464.415 C 439.210 445.987, 424.318 430.956, 406.068 425.595 C 399.848 423.768, 384.471 423.464, 378.743 425.054 C 375.064 426.076, 374.816 425.965, 366.743 419.676 C 351.136 407.518, 332.595 396.746, 315.750 390.053 C 308.941 387.347, 308.944 387.359, 312.540 374.239 C 325.393 327.349, 359.548 285.954, 403.500 263.996 C 430.219 250.648, 454.266 244.824, 483.500 244.620 C 492.354 244.558, 503.855 245.122, 509.250 245.883 L 519 247.257 519 252.079 C 519 273.912, 534.769 295.384, 556.103 302.602 C 576.102 309.368, 596.606 304.883, 611.980 290.380 C 623.209 279.787, 629.215 265.885, 629.125 250.696 C 629.033 235.251, 623.884 222.853, 613.027 211.939 C 600.147 198.990, 585.853 194.114, 566.467 196.054 M 773.500 245.589 C 757.449 247.175, 748.679 248.577, 736.233 251.548 C 685.927 263.556, 641.997 294.300, 612.815 337.921 C 599.173 358.312, 587.853 384.408, 583.011 406.624 C 577.959 429.808, 578.040 426.772, 578.020 593.750 L 578 750 501.250 749.970 L 424.500 749.941 421.019 743.864 C 414.683 732.803, 402.595 723.628, 389.068 719.612 C 381.259 717.294, 366.478 717.475, 358.024 719.993 C 336.250 726.477, 320.500 746.601, 319.277 769.500 C 318.349 786.866, 323.926 800.926, 336.468 812.839 C 350.437 826.108, 368.143 830.883, 386.947 826.451 C 401.286 823.071, 415.893 812.361, 421.999 800.750 L 424.497 796 523.748 796 L 623 796 623 756.764 L 623 717.528 629.183 724.514 C 667.523 767.834, 718.484 792.416, 776.500 795.574 C 802.543 796.992, 836.630 791.482, 860.517 781.993 C 934.188 752.728, 984.647 686.741, 992.964 608.789 C 995.681 583.326, 993.031 554.598, 985.601 528.944 L 983.174 520.565 986.505 508.410 C 992.153 487.802, 993.509 477.115, 993.405 454 C 993.278 425.575, 989.984 406.374, 981.038 381.893 C 970.498 353.050, 954.874 328.724, 932.573 306.431 C 894.366 268.240, 845.657 247.151, 792.097 245.613 C 784.069 245.383, 775.700 245.372, 773.500 245.589 M 766 292.016 C 730.222 297.004, 698.274 312.278, 673.296 336.337 C 647.225 361.448, 632.993 388.397, 625.415 427 C 623.977 434.322, 623.682 445.751, 623.286 509.500 C 622.704 603.112, 623.313 612.447, 631.699 638.451 C 649.453 693.509, 697.258 735.703, 754.735 747.046 C 795.605 755.113, 841.013 746.011, 876.104 722.719 C 904.994 703.543, 928.900 672.256, 939.884 639.249 C 946.119 620.512, 947.443 611.661, 947.473 588.500 C 947.497 570.190, 947.195 566.027, 945.117 556 C 938.609 524.599, 923.837 496.771, 901.674 474.162 C 893.512 465.836, 880.846 455.374, 873.743 451.093 L 869.985 448.828 864.908 453.393 C 839.093 476.603, 795.863 468.079, 780.130 436.676 C 764.428 405.334, 779.823 369.762, 814 358.419 C 820.559 356.242, 836.131 355.976, 842.974 357.924 C 862.301 363.426, 877.229 378.467, 882.625 397.876 C 883.733 401.861, 885.132 404.651, 886.378 405.364 C 887.472 405.989, 894.246 410.399, 901.433 415.165 C 916.347 425.055, 930.164 436.926, 940.913 449.082 L 948.326 457.466 947.735 444.983 C 944.238 371.175, 890.398 308.989, 817 293.982 C 805.098 291.549, 777.094 290.469, 766 292.016" stroke="none" fill="#004aad" fill-rule="evenodd"/></svg>